<svg xmlns="http://www.w3.org/2000/svg" xmlns:xlink="http://www.w3.org/1999/xlink" width="200" zoomAndPan="magnify" viewBox="0 0 150 52.499999" height="70" preserveAspectRatio="xMidYMid meet" version="1.0"><defs><clipPath id="bc12cc6e44"><path d="M 16.359375 33.25 L 31.894531 33.25 L 31.894531 49.121094 L 16.359375 49.121094 Z M 16.359375 33.25 " clip-rule="nonzero"/></clipPath><clipPath id="a62b20bd90"><path d="M 0.359375 0.25 L 15.894531 0.25 L 15.894531 16.121094 L 0.359375 16.121094 Z M 0.359375 0.25 " clip-rule="nonzero"/></clipPath><clipPath id="20f9bd973f"><rect x="0" width="16" y="0" height="17"/></clipPath><clipPath id="902b91fb23"><path d="M 31.714844 16.84375 L 47.789062 16.84375 L 47.789062 33.25 L 31.714844 33.25 Z M 31.714844 16.84375 " clip-rule="nonzero"/></clipPath><clipPath id="6c7111b5f1"><path d="M 0.714844 0.84375 L 16.789062 0.84375 L 16.789062 17.25 L 0.714844 17.25 Z M 0.714844 0.84375 " clip-rule="nonzero"/></clipPath><clipPath id="0e16740292"><rect x="0" width="17" y="0" height="18"/></clipPath><clipPath id="7be54dc9ff"><path d="M 0.464844 0.707031 L 16.539062 0.707031 L 16.539062 33.25 L 0.464844 33.25 Z M 0.464844 0.707031 " clip-rule="nonzero"/></clipPath><clipPath id="34437a5bda"><path d="M 0.464844 0.707031 L 16.539062 0.707031 L 16.539062 33.25 L 0.464844 33.25 Z M 0.464844 0.707031 " clip-rule="nonzero"/></clipPath><clipPath id="27d8ea65cc"><rect x="0" width="17" y="0" height="34"/></clipPath><clipPath id="2d22a39fdf"><path d="M 47.789062 0.703125 L 96.5625 0.703125 L 96.5625 17.023438 L 47.789062 17.023438 Z M 47.789062 0.703125 " clip-rule="nonzero"/></clipPath><clipPath id="0ea978cdb3"><path d="M 0.789062 0.703125 L 49.5625 0.703125 L 49.5625 17.023438 L 0.789062 17.023438 Z M 0.789062 0.703125 " clip-rule="nonzero"/></clipPath><clipPath id="a80c5b1724"><rect x="0" width="50" y="0" height="18"/></clipPath><clipPath id="d29b4d8763"><path d="M 64.058594 16.84375 L 80.320312 16.84375 L 80.320312 49.300781 L 64.058594 49.300781 Z M 64.058594 16.84375 " clip-rule="nonzero"/></clipPath><clipPath id="b764646685"><path d="M 0.0585938 0.84375 L 16.320312 0.84375 L 16.320312 33.300781 L 0.0585938 33.300781 Z M 0.0585938 0.84375 " clip-rule="nonzero"/></clipPath><clipPath id="7d77aa519f"><rect x="0" width="17" y="0" height="34"/></clipPath><clipPath id="85e0a183a0"><path d="M 96.640625 33.25 L 145.414062 33.25 L 145.414062 49.300781 L 96.640625 49.300781 Z M 96.640625 33.25 " clip-rule="nonzero"/></clipPath><clipPath id="204b7b49d6"><path d="M 0.640625 0.25 L 49.414062 0.25 L 49.414062 16.300781 L 0.640625 16.300781 Z M 0.640625 0.25 " clip-rule="nonzero"/></clipPath><clipPath id="3d9961e33e"><rect x="0" width="50" y="0" height="17"/></clipPath><clipPath id="6bfefd40e1"><path d="M 96.636719 16.84375 L 113.007812 16.84375 L 113.007812 34.835938 L 96.636719 34.835938 Z M 96.636719 16.84375 " clip-rule="nonzero"/></clipPath><clipPath id="0cd107a7ad"><path d="M 0.636719 0.84375 L 17.007812 0.84375 L 17.007812 18.835938 L 0.636719 18.835938 Z M 0.636719 0.84375 " clip-rule="nonzero"/></clipPath><clipPath id="0739114457"><rect x="0" width="18" y="0" height="19"/></clipPath><clipPath id="7928374bbf"><path d="M 112.765625 0.703125 L 145.535156 0.703125 L 145.535156 17.023438 L 112.765625 17.023438 Z M 112.765625 0.703125 " clip-rule="nonzero"/></clipPath><clipPath id="d515ab4753"><path d="M 0.765625 0.703125 L 33.535156 0.703125 L 33.535156 17.023438 L 0.765625 17.023438 Z M 0.765625 0.703125 " clip-rule="nonzero"/></clipPath><clipPath id="3c758cc22f"><rect x="0" width="34" y="0" height="18"/></clipPath><clipPath id="c667ccb25c"><rect x="0" width="146" y="0" height="50"/></clipPath></defs><g transform="matrix(1, 0, 0, 1, 2, 1)"><g clip-path="url(#c667ccb25c)"><g clip-path="url(#bc12cc6e44)"><g transform="matrix(1, 0, 0, 1, 16, 33)"><g clip-path="url(#20f9bd973f)"><g clip-path="url(#a62b20bd90)"><path fill="#0bd964" d="M 15.894531 0.25 L 15.894531 16.148438 L 0.359375 16.148438 L 0.359375 0.25 Z M 15.894531 0.25 " fill-opacity="1" fill-rule="nonzero"/></g></g></g></g><g clip-path="url(#902b91fb23)"><g transform="matrix(1, 0, 0, 1, 31, 16)"><g clip-path="url(#0e16740292)"><g clip-path="url(#6c7111b5f1)"><path fill="#0bd964" d="M 16.789062 0.84375 L 16.789062 17.230469 L 0.714844 17.230469 L 0.714844 0.84375 Z M 16.789062 0.84375 " fill-opacity="1" fill-rule="nonzero"/></g></g></g></g><g clip-path="url(#7be54dc9ff)"><g transform="matrix(1, 0, 0, 1, 0.000000000000000444, 0)"><g clip-path="url(#27d8ea65cc)"><g clip-path="url(#34437a5bda)"><path fill="#0bd964" d="M 16.539062 0.707031 L 16.539062 33.230469 L 0.464844 33.230469 L 0.464844 0.707031 Z M 16.539062 0.707031 " fill-opacity="1" fill-rule="nonzero"/></g></g></g></g><g clip-path="url(#2d22a39fdf)"><g transform="matrix(1, 0, 0, 1, 47, 0)"><g clip-path="url(#a80c5b1724)"><g clip-path="url(#0ea978cdb3)"><path fill="#0bd964" d="M 0.789062 0.703125 L 49.550781 0.703125 L 49.550781 17.023438 L 0.789062 17.023438 Z M 0.789062 0.703125 " fill-opacity="1" fill-rule="nonzero"/></g></g></g></g><g clip-path="url(#d29b4d8763)"><g transform="matrix(1, 0, 0, 1, 64, 16)"><g clip-path="url(#7d77aa519f)"><g clip-path="url(#b764646685)"><path fill="#0bd964" d="M 16.320312 0.84375 L 16.320312 33.300781 L 0.0585938 33.300781 L 0.0585938 0.84375 Z M 16.320312 0.84375 " fill-opacity="1" fill-rule="nonzero"/></g></g></g></g><g clip-path="url(#85e0a183a0)"><g transform="matrix(1, 0, 0, 1, 96, 33)"><g clip-path="url(#3d9961e33e)"><g clip-path="url(#204b7b49d6)"><path fill="#0bd964" d="M 0.640625 0.25 L 49.414062 0.25 L 49.414062 16.300781 L 0.640625 16.300781 Z M 0.640625 0.25 " fill-opacity="1" fill-rule="nonzero"/></g></g></g></g><g clip-path="url(#6bfefd40e1)"><g transform="matrix(1, 0, 0, 1, 96, 16)"><g clip-path="url(#0739114457)"><g clip-path="url(#0cd107a7ad)"><path fill="#0bd964" d="M 17.007812 0.84375 L 17.007812 18.8125 L 0.636719 18.8125 L 0.636719 0.84375 Z M 17.007812 0.84375 " fill-opacity="1" fill-rule="nonzero"/></g></g></g></g><g clip-path="url(#7928374bbf)"><g transform="matrix(1, 0, 0, 1, 112, 0)"><g clip-path="url(#3c758cc22f)"><g clip-path="url(#d515ab4753)"><path fill="#0bd964" d="M 0.765625 0.703125 L 33.53125 0.703125 L 33.53125 17.023438 L 0.765625 17.023438 Z M 0.765625 0.703125 " fill-opacity="1" fill-rule="nonzero"/></g></g></g></g></g></g></svg>