<svg xmlns="http://www.w3.org/2000/svg" xmlns:xlink="http://www.w3.org/1999/xlink" width="800" zoomAndPan="magnify" viewBox="0 0 600 299.999988" height="400" preserveAspectRatio="xMidYMid meet" version="1.0"><defs><g/><clipPath id="c3247baebb"><path d="M 0.121094 175 L 550.441406 175 L 550.441406 260.441406 L 0.121094 260.441406 Z M 0.121094 175 " clip-rule="nonzero"/></clipPath><clipPath id="a614e57e4e"><path d="M 0.121094 27 L 38 27 L 38 62 L 0.121094 62 Z M 0.121094 27 " clip-rule="nonzero"/></clipPath><clipPath id="0dbd4d7ce5"><rect x="0" width="551" y="0" height="86"/></clipPath><clipPath id="c9a2fff49b"><path d="M 59.953125 123.414062 L 118.382812 123.414062 L 118.382812 183.109375 L 59.953125 183.109375 Z M 59.953125 123.414062 " clip-rule="nonzero"/></clipPath><clipPath id="e9f3379f82"><path d="M 0.953125 0.414062 L 59.382812 0.414062 L 59.382812 60.109375 L 0.953125 60.109375 Z M 0.953125 0.414062 " clip-rule="nonzero"/></clipPath><clipPath id="5c48ff4635"><rect x="0" width="60" y="0" height="61"/></clipPath><clipPath id="77a6110979"><path d="M 117.707031 61.699219 L 178.171875 61.699219 L 178.171875 123.414062 L 117.707031 123.414062 Z M 117.707031 61.699219 " clip-rule="nonzero"/></clipPath><clipPath id="3036add958"><path d="M 0.707031 0.699219 L 61.171875 0.699219 L 61.171875 62.414062 L 0.707031 62.414062 Z M 0.707031 0.699219 " clip-rule="nonzero"/></clipPath><clipPath id="3581a130de"><rect x="0" width="62" y="0" height="63"/></clipPath><clipPath id="f28a9e4db7"><path d="M 0.171875 1 L 60.632812 1 L 60.632812 123.410156 L 0.171875 123.410156 Z M 0.171875 1 " clip-rule="nonzero"/></clipPath><clipPath id="f9f0be19ae"><path d="M 0.171875 0 L 60.632812 0 L 60.632812 122.410156 L 0.171875 122.410156 Z M 0.171875 0 " clip-rule="nonzero"/></clipPath><clipPath id="8d88de0bf0"><rect x="0" width="61" y="0" height="123"/></clipPath><clipPath id="be4a8f761b"><path d="M 178.175781 1 L 361.632812 1 L 361.632812 62.375 L 178.175781 62.375 Z M 178.175781 1 " clip-rule="nonzero"/></clipPath><clipPath id="7400a8b59d"><path d="M 0.175781 0 L 183.632812 0 L 183.632812 61.375 L 0.175781 61.375 Z M 0.175781 0 " clip-rule="nonzero"/></clipPath><clipPath id="1a600344fd"><rect x="0" width="184" y="0" height="62"/></clipPath><clipPath id="a936fb939a"><path d="M 239.371094 61.703125 L 300.53125 61.703125 L 300.53125 183.78125 L 239.371094 183.78125 Z M 239.371094 61.703125 " clip-rule="nonzero"/></clipPath><clipPath id="e4ee32b940"><path d="M 0.371094 0.703125 L 61.53125 0.703125 L 61.53125 122.78125 L 0.371094 122.78125 Z M 0.371094 0.703125 " clip-rule="nonzero"/></clipPath><clipPath id="e3a936bcab"><rect x="0" width="62" y="0" height="123"/></clipPath><clipPath id="f70eb624b1"><path d="M 361.914062 123.414062 L 545.371094 123.414062 L 545.371094 183.78125 L 361.914062 183.78125 Z M 361.914062 123.414062 " clip-rule="nonzero"/></clipPath><clipPath id="6430fbad95"><path d="M 0.914062 0.414062 L 184.371094 0.414062 L 184.371094 60.78125 L 0.914062 60.78125 Z M 0.914062 0.414062 " clip-rule="nonzero"/></clipPath><clipPath id="04334ef75f"><rect x="0" width="185" y="0" height="61"/></clipPath><clipPath id="6fef483aa5"><path d="M 361.910156 61.703125 L 423.480469 61.703125 L 423.480469 129.378906 L 361.910156 129.378906 Z M 361.910156 61.703125 " clip-rule="nonzero"/></clipPath><clipPath id="fb83939543"><path d="M 0.910156 0.703125 L 62.480469 0.703125 L 62.480469 68.378906 L 0.910156 68.378906 Z M 0.910156 0.703125 " clip-rule="nonzero"/></clipPath><clipPath id="b5a002b47f"><rect x="0" width="63" y="0" height="69"/></clipPath><clipPath id="2922307a08"><path d="M 422.578125 1 L 545.828125 1 L 545.828125 62.375 L 422.578125 62.375 Z M 422.578125 1 " clip-rule="nonzero"/></clipPath><clipPath id="1612208582"><path d="M 0.578125 0 L 123.828125 0 L 123.828125 61.375 L 0.578125 61.375 Z M 0.578125 0 " clip-rule="nonzero"/></clipPath><clipPath id="01a352838e"><rect x="0" width="124" y="0" height="62"/></clipPath><clipPath id="31fdb12e90"><rect x="0" width="551" y="0" height="261"/></clipPath></defs><g transform="matrix(1, 0, 0, 1, 27, 29)"><g clip-path="url(#31fdb12e90)"><g clip-path="url(#c3247baebb)"><g transform="matrix(1, 0, 0, 1, -0.000000000000003553, 175)"><g clip-path="url(#0dbd4d7ce5)"><g clip-path="url(#a614e57e4e)"><g fill="#292b2d" fill-opacity="1"><g transform="translate(0.172506, 61.815138)"><g><path d="M 19.046875 -9.734375 L 26.421875 -33.96875 L 37.5 -33.96875 L 25.453125 0 L 12.59375 0 L 0.546875 -33.96875 L 11.6875 -33.96875 Z M 19.046875 -9.734375 "/></g></g></g></g><g fill="#292b2d" fill-opacity="1"><g transform="translate(35.229632, 61.815138)"><g><path d="M 9.015625 -37.5 C 7.179688 -37.5 5.6875 -38.035156 4.53125 -39.109375 C 3.375 -40.179688 2.796875 -41.507812 2.796875 -43.09375 C 2.796875 -44.71875 3.375 -46.066406 4.53125 -47.140625 C 5.6875 -48.222656 7.179688 -48.765625 9.015625 -48.765625 C 10.796875 -48.765625 12.265625 -48.222656 13.421875 -47.140625 C 14.578125 -46.066406 15.15625 -44.71875 15.15625 -43.09375 C 15.15625 -41.507812 14.578125 -40.179688 13.421875 -39.109375 C 12.265625 -38.035156 10.796875 -37.5 9.015625 -37.5 Z M 14.1875 -33.96875 L 14.1875 0 L 3.78125 0 L 3.78125 -33.96875 Z M 14.1875 -33.96875 "/></g></g></g><g fill="#292b2d" fill-opacity="1"><g transform="translate(50.140199, 61.815138)"><g><path d="M 1.703125 -17.046875 C 1.703125 -20.535156 2.359375 -23.597656 3.671875 -26.234375 C 4.992188 -28.867188 6.789062 -30.894531 9.0625 -32.3125 C 11.34375 -33.738281 13.882812 -34.453125 16.6875 -34.453125 C 18.914062 -34.453125 20.953125 -33.984375 22.796875 -33.046875 C 24.640625 -32.117188 26.09375 -30.863281 27.15625 -29.28125 L 27.15625 -45.046875 L 37.5625 -45.046875 L 37.5625 0 L 27.15625 0 L 27.15625 -4.875 C 26.175781 -3.25 24.78125 -1.945312 22.96875 -0.96875 C 21.164062 0 19.070312 0.484375 16.6875 0.484375 C 13.882812 0.484375 11.34375 -0.234375 9.0625 -1.671875 C 6.789062 -3.109375 4.992188 -5.15625 3.671875 -7.8125 C 2.359375 -10.476562 1.703125 -13.554688 1.703125 -17.046875 Z M 27.15625 -16.984375 C 27.15625 -19.578125 26.429688 -21.625 24.984375 -23.125 C 23.546875 -24.632812 21.789062 -25.390625 19.71875 -25.390625 C 17.65625 -25.390625 15.898438 -24.644531 14.453125 -23.15625 C 13.015625 -21.675781 12.296875 -19.640625 12.296875 -17.046875 C 12.296875 -14.453125 13.015625 -12.390625 14.453125 -10.859375 C 15.898438 -9.335938 17.65625 -8.578125 19.71875 -8.578125 C 21.789062 -8.578125 23.546875 -9.328125 24.984375 -10.828125 C 26.429688 -12.335938 27.15625 -14.390625 27.15625 -16.984375 Z M 27.15625 -16.984375 "/></g></g></g><g fill="#292b2d" fill-opacity="1"><g transform="translate(88.423224, 61.815138)"><g><path d="M 1.703125 -17.046875 C 1.703125 -20.535156 2.359375 -23.597656 3.671875 -26.234375 C 4.992188 -28.867188 6.789062 -30.894531 9.0625 -32.3125 C 11.34375 -33.738281 13.882812 -34.453125 16.6875 -34.453125 C 19.070312 -34.453125 21.164062 -33.960938 22.96875 -32.984375 C 24.78125 -32.015625 26.175781 -30.738281 27.15625 -29.15625 L 27.15625 -33.96875 L 37.5625 -33.96875 L 37.5625 0 L 27.15625 0 L 27.15625 -4.8125 C 26.132812 -3.226562 24.71875 -1.945312 22.90625 -0.96875 C 21.101562 0 19.007812 0.484375 16.625 0.484375 C 13.863281 0.484375 11.34375 -0.234375 9.0625 -1.671875 C 6.789062 -3.109375 4.992188 -5.15625 3.671875 -7.8125 C 2.359375 -10.476562 1.703125 -13.554688 1.703125 -17.046875 Z M 27.15625 -16.984375 C 27.15625 -19.578125 26.429688 -21.625 24.984375 -23.125 C 23.546875 -24.632812 21.789062 -25.390625 19.71875 -25.390625 C 17.65625 -25.390625 15.898438 -24.644531 14.453125 -23.15625 C 13.015625 -21.675781 12.296875 -19.640625 12.296875 -17.046875 C 12.296875 -14.453125 13.015625 -12.390625 14.453125 -10.859375 C 15.898438 -9.335938 17.65625 -8.578125 19.71875 -8.578125 C 21.789062 -8.578125 23.546875 -9.328125 24.984375 -10.828125 C 26.429688 -12.335938 27.15625 -14.390625 27.15625 -16.984375 Z M 27.15625 -16.984375 "/></g></g></g><g fill="#292b2d" fill-opacity="1"><g transform="translate(126.70625, 61.815138)"><g><path d="M 14.1875 -28.3125 C 15.40625 -30.175781 16.925781 -31.644531 18.75 -32.71875 C 20.570312 -33.789062 22.601562 -34.328125 24.84375 -34.328125 L 24.84375 -23.3125 L 21.96875 -23.3125 C 19.375 -23.3125 17.425781 -22.753906 16.125 -21.640625 C 14.832031 -20.523438 14.1875 -18.566406 14.1875 -15.765625 L 14.1875 0 L 3.78125 0 L 3.78125 -33.96875 L 14.1875 -33.96875 Z M 14.1875 -28.3125 "/></g></g></g><g fill="#292b2d" fill-opacity="1"><g transform="translate(149.711935, 61.815138)"><g><path d="M 1.703125 -17.046875 C 1.703125 -20.535156 2.359375 -23.597656 3.671875 -26.234375 C 4.992188 -28.867188 6.789062 -30.894531 9.0625 -32.3125 C 11.34375 -33.738281 13.882812 -34.453125 16.6875 -34.453125 C 19.070312 -34.453125 21.164062 -33.960938 22.96875 -32.984375 C 24.78125 -32.015625 26.175781 -30.738281 27.15625 -29.15625 L 27.15625 -33.96875 L 37.5625 -33.96875 L 37.5625 0 L 27.15625 0 L 27.15625 -4.8125 C 26.132812 -3.226562 24.71875 -1.945312 22.90625 -0.96875 C 21.101562 0 19.007812 0.484375 16.625 0.484375 C 13.863281 0.484375 11.34375 -0.234375 9.0625 -1.671875 C 6.789062 -3.109375 4.992188 -5.15625 3.671875 -7.8125 C 2.359375 -10.476562 1.703125 -13.554688 1.703125 -17.046875 Z M 27.15625 -16.984375 C 27.15625 -19.578125 26.429688 -21.625 24.984375 -23.125 C 23.546875 -24.632812 21.789062 -25.390625 19.71875 -25.390625 C 17.65625 -25.390625 15.898438 -24.644531 14.453125 -23.15625 C 13.015625 -21.675781 12.296875 -19.640625 12.296875 -17.046875 C 12.296875 -14.453125 13.015625 -12.390625 14.453125 -10.859375 C 15.898438 -9.335938 17.65625 -8.578125 19.71875 -8.578125 C 21.789062 -8.578125 23.546875 -9.328125 24.984375 -10.828125 C 26.429688 -12.335938 27.15625 -14.390625 27.15625 -16.984375 Z M 27.15625 -16.984375 "/></g></g></g><g fill="#a6a6a6" fill-opacity="1"><g transform="translate(188.029615, 61.815138)"><g><path d="M 22.703125 -8.828125 L 22.703125 0 L 17.40625 0 C 13.632812 0 10.691406 -0.921875 8.578125 -2.765625 C 6.472656 -4.617188 5.421875 -7.632812 5.421875 -11.8125 L 5.421875 -25.328125 L 1.28125 -25.328125 L 1.28125 -33.96875 L 5.421875 -33.96875 L 5.421875 -42.25 L 15.828125 -42.25 L 15.828125 -33.96875 L 22.640625 -33.96875 L 22.640625 -25.328125 L 15.828125 -25.328125 L 15.828125 -11.6875 C 15.828125 -10.675781 16.066406 -9.945312 16.546875 -9.5 C 17.035156 -9.050781 17.851562 -8.828125 19 -8.828125 Z M 22.703125 -8.828125 "/></g></g></g><g fill="#a6a6a6" fill-opacity="1"><g transform="translate(209.69628, 61.815138)"><g><path d="M 14.1875 -28.3125 C 15.40625 -30.175781 16.925781 -31.644531 18.75 -32.71875 C 20.570312 -33.789062 22.601562 -34.328125 24.84375 -34.328125 L 24.84375 -23.3125 L 21.96875 -23.3125 C 19.375 -23.3125 17.425781 -22.753906 16.125 -21.640625 C 14.832031 -20.523438 14.1875 -18.566406 14.1875 -15.765625 L 14.1875 0 L 3.78125 0 L 3.78125 -33.96875 L 14.1875 -33.96875 Z M 14.1875 -28.3125 "/></g></g></g><g fill="#a6a6a6" fill-opacity="1"><g transform="translate(232.701965, 61.815138)"><g><path d="M 1.703125 -17.046875 C 1.703125 -20.535156 2.359375 -23.597656 3.671875 -26.234375 C 4.992188 -28.867188 6.789062 -30.894531 9.0625 -32.3125 C 11.34375 -33.738281 13.882812 -34.453125 16.6875 -34.453125 C 19.070312 -34.453125 21.164062 -33.960938 22.96875 -32.984375 C 24.78125 -32.015625 26.175781 -30.738281 27.15625 -29.15625 L 27.15625 -33.96875 L 37.5625 -33.96875 L 37.5625 0 L 27.15625 0 L 27.15625 -4.8125 C 26.132812 -3.226562 24.71875 -1.945312 22.90625 -0.96875 C 21.101562 0 19.007812 0.484375 16.625 0.484375 C 13.863281 0.484375 11.34375 -0.234375 9.0625 -1.671875 C 6.789062 -3.109375 4.992188 -5.15625 3.671875 -7.8125 C 2.359375 -10.476562 1.703125 -13.554688 1.703125 -17.046875 Z M 27.15625 -16.984375 C 27.15625 -19.578125 26.429688 -21.625 24.984375 -23.125 C 23.546875 -24.632812 21.789062 -25.390625 19.71875 -25.390625 C 17.65625 -25.390625 15.898438 -24.644531 14.453125 -23.15625 C 13.015625 -21.675781 12.296875 -19.640625 12.296875 -17.046875 C 12.296875 -14.453125 13.015625 -12.390625 14.453125 -10.859375 C 15.898438 -9.335938 17.65625 -8.578125 19.71875 -8.578125 C 21.789062 -8.578125 23.546875 -9.328125 24.984375 -10.828125 C 26.429688 -12.335938 27.15625 -14.390625 27.15625 -16.984375 Z M 27.15625 -16.984375 "/></g></g></g><g fill="#a6a6a6" fill-opacity="1"><g transform="translate(270.984991, 61.815138)"><g><path d="M 1.703125 -17.046875 C 1.703125 -20.535156 2.359375 -23.597656 3.671875 -26.234375 C 4.992188 -28.867188 6.789062 -30.894531 9.0625 -32.3125 C 11.34375 -33.738281 13.882812 -34.453125 16.6875 -34.453125 C 18.914062 -34.453125 20.953125 -33.984375 22.796875 -33.046875 C 24.640625 -32.117188 26.09375 -30.863281 27.15625 -29.28125 L 27.15625 -45.046875 L 37.5625 -45.046875 L 37.5625 0 L 27.15625 0 L 27.15625 -4.875 C 26.175781 -3.25 24.78125 -1.945312 22.96875 -0.96875 C 21.164062 0 19.070312 0.484375 16.6875 0.484375 C 13.882812 0.484375 11.34375 -0.234375 9.0625 -1.671875 C 6.789062 -3.109375 4.992188 -5.15625 3.671875 -7.8125 C 2.359375 -10.476562 1.703125 -13.554688 1.703125 -17.046875 Z M 27.15625 -16.984375 C 27.15625 -19.578125 26.429688 -21.625 24.984375 -23.125 C 23.546875 -24.632812 21.789062 -25.390625 19.71875 -25.390625 C 17.65625 -25.390625 15.898438 -24.644531 14.453125 -23.15625 C 13.015625 -21.675781 12.296875 -19.640625 12.296875 -17.046875 C 12.296875 -14.453125 13.015625 -12.390625 14.453125 -10.859375 C 15.898438 -9.335938 17.65625 -8.578125 19.71875 -8.578125 C 21.789062 -8.578125 23.546875 -9.328125 24.984375 -10.828125 C 26.429688 -12.335938 27.15625 -14.390625 27.15625 -16.984375 Z M 27.15625 -16.984375 "/></g></g></g><g fill="#a6a6a6" fill-opacity="1"><g transform="translate(309.268017, 61.815138)"><g><path d="M 35.796875 -17.53125 C 35.796875 -16.5625 35.734375 -15.546875 35.609375 -14.484375 L 12.046875 -14.484375 C 12.210938 -12.378906 12.894531 -10.765625 14.09375 -9.640625 C 15.289062 -8.523438 16.757812 -7.96875 18.5 -7.96875 C 21.101562 -7.96875 22.910156 -9.066406 23.921875 -11.265625 L 35 -11.265625 C 34.4375 -9.023438 33.410156 -7.015625 31.921875 -5.234375 C 30.441406 -3.453125 28.585938 -2.050781 26.359375 -1.03125 C 24.128906 -0.0195312 21.632812 0.484375 18.875 0.484375 C 15.539062 0.484375 12.578125 -0.222656 9.984375 -1.640625 C 7.390625 -3.066406 5.359375 -5.097656 3.890625 -7.734375 C 2.429688 -10.367188 1.703125 -13.453125 1.703125 -16.984375 C 1.703125 -20.515625 2.421875 -23.597656 3.859375 -26.234375 C 5.304688 -28.867188 7.328125 -30.894531 9.921875 -32.3125 C 12.515625 -33.738281 15.5 -34.453125 18.875 -34.453125 C 22.15625 -34.453125 25.070312 -33.757812 27.625 -32.375 C 30.1875 -31 32.1875 -29.03125 33.625 -26.46875 C 35.070312 -23.914062 35.796875 -20.9375 35.796875 -17.53125 Z M 25.140625 -20.265625 C 25.140625 -22.054688 24.53125 -23.476562 23.3125 -24.53125 C 22.09375 -25.582031 20.570312 -26.109375 18.75 -26.109375 C 17 -26.109375 15.523438 -25.601562 14.328125 -24.59375 C 13.140625 -23.582031 12.398438 -22.140625 12.109375 -20.265625 Z M 25.140625 -20.265625 "/></g></g></g><g fill="#a6a6a6" fill-opacity="1"><g transform="translate(343.716502, 61.815138)"><g><path d="M 1.703125 -16.984375 C 1.703125 -20.515625 2.421875 -23.597656 3.859375 -26.234375 C 5.304688 -28.867188 7.316406 -30.894531 9.890625 -32.3125 C 12.460938 -33.738281 15.414062 -34.453125 18.75 -34.453125 C 23.007812 -34.453125 26.566406 -33.335938 29.421875 -31.109375 C 32.285156 -28.878906 34.164062 -25.734375 35.0625 -21.671875 L 23.984375 -21.671875 C 23.046875 -24.265625 21.238281 -25.5625 18.5625 -25.5625 C 16.65625 -25.5625 15.132812 -24.820312 14 -23.34375 C 12.863281 -21.863281 12.296875 -19.742188 12.296875 -16.984375 C 12.296875 -14.222656 12.863281 -12.101562 14 -10.625 C 15.132812 -9.144531 16.65625 -8.40625 18.5625 -8.40625 C 21.238281 -8.40625 23.046875 -9.703125 23.984375 -12.296875 L 35.0625 -12.296875 C 34.164062 -8.316406 32.273438 -5.191406 29.390625 -2.921875 C 26.515625 -0.648438 22.96875 0.484375 18.75 0.484375 C 15.414062 0.484375 12.460938 -0.222656 9.890625 -1.640625 C 7.316406 -3.066406 5.304688 -5.097656 3.859375 -7.734375 C 2.421875 -10.367188 1.703125 -13.453125 1.703125 -16.984375 Z M 1.703125 -16.984375 "/></g></g></g><g fill="#a6a6a6" fill-opacity="1"><g transform="translate(377.495432, 61.815138)"><g><path d="M 35.796875 -17.53125 C 35.796875 -16.5625 35.734375 -15.546875 35.609375 -14.484375 L 12.046875 -14.484375 C 12.210938 -12.378906 12.894531 -10.765625 14.09375 -9.640625 C 15.289062 -8.523438 16.757812 -7.96875 18.5 -7.96875 C 21.101562 -7.96875 22.910156 -9.066406 23.921875 -11.265625 L 35 -11.265625 C 34.4375 -9.023438 33.410156 -7.015625 31.921875 -5.234375 C 30.441406 -3.453125 28.585938 -2.050781 26.359375 -1.03125 C 24.128906 -0.0195312 21.632812 0.484375 18.875 0.484375 C 15.539062 0.484375 12.578125 -0.222656 9.984375 -1.640625 C 7.390625 -3.066406 5.359375 -5.097656 3.890625 -7.734375 C 2.429688 -10.367188 1.703125 -13.453125 1.703125 -16.984375 C 1.703125 -20.515625 2.421875 -23.597656 3.859375 -26.234375 C 5.304688 -28.867188 7.328125 -30.894531 9.921875 -32.3125 C 12.515625 -33.738281 15.5 -34.453125 18.875 -34.453125 C 22.15625 -34.453125 25.070312 -33.757812 27.625 -32.375 C 30.1875 -31 32.1875 -29.03125 33.625 -26.46875 C 35.070312 -23.914062 35.796875 -20.9375 35.796875 -17.53125 Z M 25.140625 -20.265625 C 25.140625 -22.054688 24.53125 -23.476562 23.3125 -24.53125 C 22.09375 -25.582031 20.570312 -26.109375 18.75 -26.109375 C 17 -26.109375 15.523438 -25.601562 14.328125 -24.59375 C 13.140625 -23.582031 12.398438 -22.140625 12.109375 -20.265625 Z M 25.140625 -20.265625 "/></g></g></g><g fill="#a6a6a6" fill-opacity="1"><g transform="translate(411.943917, 61.815138)"><g><path d="M 24.46875 -34.328125 C 28.445312 -34.328125 31.625 -33.039062 34 -30.46875 C 36.375 -27.894531 37.5625 -24.351562 37.5625 -19.84375 L 37.5625 0 L 27.21875 0 L 27.21875 -18.4375 C 27.21875 -20.71875 26.628906 -22.484375 25.453125 -23.734375 C 24.273438 -24.992188 22.691406 -25.625 20.703125 -25.625 C 18.710938 -25.625 17.128906 -24.992188 15.953125 -23.734375 C 14.773438 -22.484375 14.1875 -20.71875 14.1875 -18.4375 L 14.1875 0 L 3.78125 0 L 3.78125 -33.96875 L 14.1875 -33.96875 L 14.1875 -29.46875 C 15.238281 -30.96875 16.65625 -32.148438 18.4375 -33.015625 C 20.226562 -33.890625 22.238281 -34.328125 24.46875 -34.328125 Z M 24.46875 -34.328125 "/></g></g></g><g fill="#a6a6a6" fill-opacity="1"><g transform="translate(449.9226, 61.815138)"><g><path d="M 22.703125 -8.828125 L 22.703125 0 L 17.40625 0 C 13.632812 0 10.691406 -0.921875 8.578125 -2.765625 C 6.472656 -4.617188 5.421875 -7.632812 5.421875 -11.8125 L 5.421875 -25.328125 L 1.28125 -25.328125 L 1.28125 -33.96875 L 5.421875 -33.96875 L 5.421875 -42.25 L 15.828125 -42.25 L 15.828125 -33.96875 L 22.640625 -33.96875 L 22.640625 -25.328125 L 15.828125 -25.328125 L 15.828125 -11.6875 C 15.828125 -10.675781 16.066406 -9.945312 16.546875 -9.5 C 17.035156 -9.050781 17.851562 -8.828125 19 -8.828125 Z M 22.703125 -8.828125 "/></g></g></g><g fill="#a6a6a6" fill-opacity="1"><g transform="translate(471.589265, 61.815138)"><g><path d="M 35.796875 -17.53125 C 35.796875 -16.5625 35.734375 -15.546875 35.609375 -14.484375 L 12.046875 -14.484375 C 12.210938 -12.378906 12.894531 -10.765625 14.09375 -9.640625 C 15.289062 -8.523438 16.757812 -7.96875 18.5 -7.96875 C 21.101562 -7.96875 22.910156 -9.066406 23.921875 -11.265625 L 35 -11.265625 C 34.4375 -9.023438 33.410156 -7.015625 31.921875 -5.234375 C 30.441406 -3.453125 28.585938 -2.050781 26.359375 -1.03125 C 24.128906 -0.0195312 21.632812 0.484375 18.875 0.484375 C 15.539062 0.484375 12.578125 -0.222656 9.984375 -1.640625 C 7.390625 -3.066406 5.359375 -5.097656 3.890625 -7.734375 C 2.429688 -10.367188 1.703125 -13.453125 1.703125 -16.984375 C 1.703125 -20.515625 2.421875 -23.597656 3.859375 -26.234375 C 5.304688 -28.867188 7.328125 -30.894531 9.921875 -32.3125 C 12.515625 -33.738281 15.5 -34.453125 18.875 -34.453125 C 22.15625 -34.453125 25.070312 -33.757812 27.625 -32.375 C 30.1875 -31 32.1875 -29.03125 33.625 -26.46875 C 35.070312 -23.914062 35.796875 -20.9375 35.796875 -17.53125 Z M 25.140625 -20.265625 C 25.140625 -22.054688 24.53125 -23.476562 23.3125 -24.53125 C 22.09375 -25.582031 20.570312 -26.109375 18.75 -26.109375 C 17 -26.109375 15.523438 -25.601562 14.328125 -24.59375 C 13.140625 -23.582031 12.398438 -22.140625 12.109375 -20.265625 Z M 25.140625 -20.265625 "/></g></g></g><g fill="#a6a6a6" fill-opacity="1"><g transform="translate(506.03775, 61.815138)"><g><path d="M 14.1875 -28.3125 C 15.40625 -30.175781 16.925781 -31.644531 18.75 -32.71875 C 20.570312 -33.789062 22.601562 -34.328125 24.84375 -34.328125 L 24.84375 -23.3125 L 21.96875 -23.3125 C 19.375 -23.3125 17.425781 -22.753906 16.125 -21.640625 C 14.832031 -20.523438 14.1875 -18.566406 14.1875 -15.765625 L 14.1875 0 L 3.78125 0 L 3.78125 -33.96875 L 14.1875 -33.96875 Z M 14.1875 -28.3125 "/></g></g></g><g fill="#a6a6a6" fill-opacity="1"><g transform="translate(529.043434, 61.815138)"><g><path d="M 8.640625 0.484375 C 6.816406 0.484375 5.328125 -0.0507812 4.171875 -1.125 C 3.015625 -2.195312 2.4375 -3.523438 2.4375 -5.109375 C 2.4375 -6.734375 3.015625 -8.09375 4.171875 -9.1875 C 5.328125 -10.28125 6.816406 -10.828125 8.640625 -10.828125 C 10.429688 -10.828125 11.90625 -10.28125 13.0625 -9.1875 C 14.21875 -8.09375 14.796875 -6.734375 14.796875 -5.109375 C 14.796875 -3.523438 14.21875 -2.195312 13.0625 -1.125 C 11.90625 -0.0507812 10.429688 0.484375 8.640625 0.484375 Z M 8.640625 0.484375 "/></g></g></g></g></g></g><g clip-path="url(#c9a2fff49b)"><g transform="matrix(1, 0, 0, 1, 59, 123)"><g clip-path="url(#5c48ff4635)"><g clip-path="url(#e9f3379f82)"><path fill="#0bd964" d="M 59.382812 0.414062 L 59.382812 60.214844 L 0.953125 60.214844 L 0.953125 0.414062 Z M 59.382812 0.414062 " fill-opacity="1" fill-rule="nonzero"/></g></g></g></g><g clip-path="url(#77a6110979)"><g transform="matrix(1, 0, 0, 1, 117, 61)"><g clip-path="url(#3581a130de)"><g clip-path="url(#3036add958)"><path fill="#0bd964" d="M 61.171875 0.699219 L 61.171875 62.34375 L 0.707031 62.34375 L 0.707031 0.699219 Z M 61.171875 0.699219 " fill-opacity="1" fill-rule="nonzero"/></g></g></g></g><g clip-path="url(#f28a9e4db7)"><g transform="matrix(1, 0, 0, 1, -0.000000000000003553, 1)"><g clip-path="url(#8d88de0bf0)"><g clip-path="url(#f9f0be19ae)"><path fill="#0bd964" d="M 60.632812 0 L 60.632812 122.339844 L 0.171875 122.339844 L 0.171875 0 Z M 60.632812 0 " fill-opacity="1" fill-rule="nonzero"/></g></g></g></g><g clip-path="url(#be4a8f761b)"><g transform="matrix(1, 0, 0, 1, 178, 1)"><g clip-path="url(#1a600344fd)"><g clip-path="url(#7400a8b59d)"><path fill="#0bd964" d="M 0.175781 0 L 183.585938 0 L 183.585938 61.375 L 0.175781 61.375 Z M 0.175781 0 " fill-opacity="1" fill-rule="nonzero"/></g></g></g></g><g clip-path="url(#a936fb939a)"><g transform="matrix(1, 0, 0, 1, 239, 61)"><g clip-path="url(#e3a936bcab)"><g clip-path="url(#e4ee32b940)"><path fill="#0bd964" d="M 61.53125 0.703125 L 61.53125 122.785156 L 0.371094 122.785156 L 0.371094 0.703125 Z M 61.53125 0.703125 " fill-opacity="1" fill-rule="nonzero"/></g></g></g></g><g clip-path="url(#f70eb624b1)"><g transform="matrix(1, 0, 0, 1, 361, 123)"><g clip-path="url(#04334ef75f)"><g clip-path="url(#6430fbad95)"><path fill="#0bd964" d="M 0.914062 0.414062 L 184.375 0.414062 L 184.375 60.78125 L 0.914062 60.78125 Z M 0.914062 0.414062 " fill-opacity="1" fill-rule="nonzero"/></g></g></g></g><g clip-path="url(#6fef483aa5)"><g transform="matrix(1, 0, 0, 1, 361, 61)"><g clip-path="url(#b5a002b47f)"><g clip-path="url(#fb83939543)"><path fill="#0bd964" d="M 62.480469 0.703125 L 62.480469 68.289062 L 0.910156 68.289062 L 0.910156 0.703125 Z M 62.480469 0.703125 " fill-opacity="1" fill-rule="nonzero"/></g></g></g></g><g clip-path="url(#2922307a08)"><g transform="matrix(1, 0, 0, 1, 422, 1)"><g clip-path="url(#01a352838e)"><g clip-path="url(#1612208582)"><path fill="#0bd964" d="M 0.578125 0 L 123.8125 0 L 123.8125 61.375 L 0.578125 61.375 Z M 0.578125 0 " fill-opacity="1" fill-rule="nonzero"/></g></g></g></g></g></g></svg>