<svg xmlns="http://www.w3.org/2000/svg" xmlns:xlink="http://www.w3.org/1999/xlink" width="700" zoomAndPan="magnify" viewBox="0 0 525 89.999999" height="120" preserveAspectRatio="xMidYMid meet" version="1.0"><defs><g/><clipPath id="bee881a2a4"><rect x="0" width="267" y="0" height="90"/></clipPath><clipPath id="ca1d073b26"><path d="M 26.46875 54.4375 L 52.242188 54.4375 L 52.242188 80.765625 L 26.46875 80.765625 Z M 26.46875 54.4375 " clip-rule="nonzero"/></clipPath><clipPath id="3a3bb946c0"><path d="M 0.46875 0.4375 L 26.242188 0.4375 L 26.242188 26.765625 L 0.46875 26.765625 Z M 0.46875 0.4375 " clip-rule="nonzero"/></clipPath><clipPath id="1f5cf1291c"><rect x="0" width="27" y="0" height="27"/></clipPath><clipPath id="2d6f50fe2a"><path d="M 51.945312 27.210938 L 78.613281 27.210938 L 78.613281 54.433594 L 51.945312 54.433594 Z M 51.945312 27.210938 " clip-rule="nonzero"/></clipPath><clipPath id="c21ac737a0"><path d="M 0.945312 0.210938 L 27.613281 0.210938 L 27.613281 27.433594 L 0.945312 27.433594 Z M 0.945312 0.210938 " clip-rule="nonzero"/></clipPath><clipPath id="99d1b55861"><rect x="0" width="28" y="0" height="28"/></clipPath><clipPath id="242871cbff"><path d="M 0.0976562 0.4375 L 26.765625 0.4375 L 26.765625 54.433594 L 0.0976562 54.433594 Z M 0.0976562 0.4375 " clip-rule="nonzero"/></clipPath><clipPath id="9ffe4d7169"><path d="M 0.0976562 0.4375 L 26.765625 0.4375 L 26.765625 54.433594 L 0.0976562 54.433594 Z M 0.0976562 0.4375 " clip-rule="nonzero"/></clipPath><clipPath id="df1337641d"><rect x="0" width="27" y="0" height="55"/></clipPath><clipPath id="602410431a"><path d="M 78.617188 0.4375 L 159.539062 0.4375 L 159.539062 27.511719 L 78.617188 27.511719 Z M 78.617188 0.4375 " clip-rule="nonzero"/></clipPath><clipPath id="f2b45e3e0b"><path d="M 0.617188 0.4375 L 81.539062 0.4375 L 81.539062 27.511719 L 0.617188 27.511719 Z M 0.617188 0.4375 " clip-rule="nonzero"/></clipPath><clipPath id="567a1cfa70"><rect x="0" width="82" y="0" height="28"/></clipPath><clipPath id="fbdced6677"><path d="M 105.609375 27.214844 L 132.589844 27.214844 L 132.589844 81.0625 L 105.609375 81.0625 Z M 105.609375 27.214844 " clip-rule="nonzero"/></clipPath><clipPath id="fa544302cb"><path d="M 0.609375 0.214844 L 27.589844 0.214844 L 27.589844 54.0625 L 0.609375 54.0625 Z M 0.609375 0.214844 " clip-rule="nonzero"/></clipPath><clipPath id="0966651179"><rect x="0" width="28" y="0" height="55"/></clipPath><clipPath id="a66b2f4b63"><path d="M 159.664062 54.433594 L 240.585938 54.433594 L 240.585938 81.0625 L 159.664062 81.0625 Z M 159.664062 54.433594 " clip-rule="nonzero"/></clipPath><clipPath id="21c510a2af"><path d="M 0.664062 0.433594 L 81.585938 0.433594 L 81.585938 27.0625 L 0.664062 27.0625 Z M 0.664062 0.433594 " clip-rule="nonzero"/></clipPath><clipPath id="10ce5d7f82"><rect x="0" width="82" y="0" height="28"/></clipPath><clipPath id="503027fdee"><path d="M 159.660156 27.214844 L 186.820312 27.214844 L 186.820312 57.066406 L 159.660156 57.066406 Z M 159.660156 27.214844 " clip-rule="nonzero"/></clipPath><clipPath id="b3b86f0f2d"><path d="M 0.660156 0.214844 L 27.820312 0.214844 L 27.820312 30.066406 L 0.660156 30.066406 Z M 0.660156 0.214844 " clip-rule="nonzero"/></clipPath><clipPath id="d6f70fa796"><rect x="0" width="28" y="0" height="31"/></clipPath><clipPath id="2a9b734a79"><path d="M 186.421875 0.4375 L 240.785156 0.4375 L 240.785156 27.511719 L 186.421875 27.511719 Z M 186.421875 0.4375 " clip-rule="nonzero"/></clipPath><clipPath id="a31bc80d92"><path d="M 0.421875 0.4375 L 54.785156 0.4375 L 54.785156 27.511719 L 0.421875 27.511719 Z M 0.421875 0.4375 " clip-rule="nonzero"/></clipPath><clipPath id="563eccb057"><rect x="0" width="55" y="0" height="28"/></clipPath><clipPath id="12bf4fc8b5"><rect x="0" width="241" y="0" height="82"/></clipPath></defs><g transform="matrix(1, 0, 0, 1, 258, -0.00000000000000949)"><g clip-path="url(#bee881a2a4)"><g fill="#292b2d" fill-opacity="1"><g transform="translate(0.0819912, 44.274828)"><g><path d="M 14.21875 -7.265625 L 19.71875 -25.359375 L 27.984375 -25.359375 L 19 0 L 9.40625 0 L 0.40625 -25.359375 L 8.71875 -25.359375 Z M 14.21875 -7.265625 "/></g></g></g><g fill="#292b2d" fill-opacity="1"><g transform="translate(26.249534, 44.274828)"><g><path d="M 6.71875 -27.984375 C 5.363281 -27.984375 4.253906 -28.382812 3.390625 -29.1875 C 2.523438 -29.988281 2.09375 -30.984375 2.09375 -32.171875 C 2.09375 -33.378906 2.523438 -34.382812 3.390625 -35.1875 C 4.253906 -35.988281 5.363281 -36.390625 6.71875 -36.390625 C 8.050781 -36.390625 9.148438 -35.988281 10.015625 -35.1875 C 10.878906 -34.382812 11.3125 -33.378906 11.3125 -32.171875 C 11.3125 -30.984375 10.878906 -29.988281 10.015625 -29.1875 C 9.148438 -28.382812 8.050781 -27.984375 6.71875 -27.984375 Z M 10.59375 -25.359375 L 10.59375 0 L 2.8125 0 L 2.8125 -25.359375 Z M 10.59375 -25.359375 "/></g></g></g><g fill="#292b2d" fill-opacity="1"><g transform="translate(37.379165, 44.274828)"><g><path d="M 1.265625 -12.71875 C 1.265625 -15.320312 1.753906 -17.609375 2.734375 -19.578125 C 3.722656 -21.546875 5.066406 -23.0625 6.765625 -24.125 C 8.460938 -25.1875 10.359375 -25.71875 12.453125 -25.71875 C 14.117188 -25.71875 15.640625 -25.367188 17.015625 -24.671875 C 18.390625 -23.972656 19.472656 -23.035156 20.265625 -21.859375 L 20.265625 -33.625 L 28.03125 -33.625 L 28.03125 0 L 20.265625 0 L 20.265625 -3.640625 C 19.535156 -2.421875 18.492188 -1.445312 17.140625 -0.71875 C 15.796875 0 14.234375 0.359375 12.453125 0.359375 C 10.359375 0.359375 8.460938 -0.175781 6.765625 -1.25 C 5.066406 -2.320312 3.722656 -3.847656 2.734375 -5.828125 C 1.753906 -7.816406 1.265625 -10.113281 1.265625 -12.71875 Z M 20.265625 -12.671875 C 20.265625 -14.609375 19.726562 -16.140625 18.65625 -17.265625 C 17.582031 -18.390625 16.269531 -18.953125 14.71875 -18.953125 C 13.175781 -18.953125 11.863281 -18.394531 10.78125 -17.28125 C 9.707031 -16.175781 9.171875 -14.65625 9.171875 -12.71875 C 9.171875 -10.78125 9.707031 -9.242188 10.78125 -8.109375 C 11.863281 -6.972656 13.175781 -6.40625 14.71875 -6.40625 C 16.269531 -6.40625 17.582031 -6.960938 18.65625 -8.078125 C 19.726562 -9.203125 20.265625 -10.734375 20.265625 -12.671875 Z M 20.265625 -12.671875 "/></g></g></g><g fill="#292b2d" fill-opacity="1"><g transform="translate(65.954603, 44.274828)"><g><path d="M 1.265625 -12.71875 C 1.265625 -15.320312 1.753906 -17.609375 2.734375 -19.578125 C 3.722656 -21.546875 5.066406 -23.0625 6.765625 -24.125 C 8.460938 -25.1875 10.359375 -25.71875 12.453125 -25.71875 C 14.234375 -25.71875 15.796875 -25.351562 17.140625 -24.625 C 18.492188 -23.894531 19.535156 -22.941406 20.265625 -21.765625 L 20.265625 -25.359375 L 28.03125 -25.359375 L 28.03125 0 L 20.265625 0 L 20.265625 -3.59375 C 19.503906 -2.40625 18.445312 -1.445312 17.09375 -0.71875 C 15.75 0 14.1875 0.359375 12.40625 0.359375 C 10.34375 0.359375 8.460938 -0.175781 6.765625 -1.25 C 5.066406 -2.320312 3.722656 -3.847656 2.734375 -5.828125 C 1.753906 -7.816406 1.265625 -10.113281 1.265625 -12.71875 Z M 20.265625 -12.671875 C 20.265625 -14.609375 19.726562 -16.140625 18.65625 -17.265625 C 17.582031 -18.390625 16.269531 -18.953125 14.71875 -18.953125 C 13.175781 -18.953125 11.863281 -18.394531 10.78125 -17.28125 C 9.707031 -16.175781 9.171875 -14.65625 9.171875 -12.71875 C 9.171875 -10.78125 9.707031 -9.242188 10.78125 -8.109375 C 11.863281 -6.972656 13.175781 -6.40625 14.71875 -6.40625 C 16.269531 -6.40625 17.582031 -6.960938 18.65625 -8.078125 C 19.726562 -9.203125 20.265625 -10.734375 20.265625 -12.671875 Z M 20.265625 -12.671875 "/></g></g></g><g fill="#292b2d" fill-opacity="1"><g transform="translate(94.53004, 44.274828)"><g><path d="M 10.59375 -21.125 C 11.5 -22.519531 12.632812 -23.617188 14 -24.421875 C 15.363281 -25.222656 16.875 -25.625 18.53125 -25.625 L 18.53125 -17.40625 L 16.40625 -17.40625 C 14.46875 -17.40625 13.015625 -16.988281 12.046875 -16.15625 C 11.078125 -15.320312 10.59375 -13.859375 10.59375 -11.765625 L 10.59375 0 L 2.8125 0 L 2.8125 -25.359375 L 10.59375 -25.359375 Z M 10.59375 -21.125 "/></g></g></g><g fill="#292b2d" fill-opacity="1"><g transform="translate(111.702076, 44.274828)"><g><path d="M 1.265625 -12.71875 C 1.265625 -15.320312 1.753906 -17.609375 2.734375 -19.578125 C 3.722656 -21.546875 5.066406 -23.0625 6.765625 -24.125 C 8.460938 -25.1875 10.359375 -25.71875 12.453125 -25.71875 C 14.234375 -25.71875 15.796875 -25.351562 17.140625 -24.625 C 18.492188 -23.894531 19.535156 -22.941406 20.265625 -21.765625 L 20.265625 -25.359375 L 28.03125 -25.359375 L 28.03125 0 L 20.265625 0 L 20.265625 -3.59375 C 19.503906 -2.40625 18.445312 -1.445312 17.09375 -0.71875 C 15.75 0 14.1875 0.359375 12.40625 0.359375 C 10.34375 0.359375 8.460938 -0.175781 6.765625 -1.25 C 5.066406 -2.320312 3.722656 -3.847656 2.734375 -5.828125 C 1.753906 -7.816406 1.265625 -10.113281 1.265625 -12.71875 Z M 20.265625 -12.671875 C 20.265625 -14.609375 19.726562 -16.140625 18.65625 -17.265625 C 17.582031 -18.390625 16.269531 -18.953125 14.71875 -18.953125 C 13.175781 -18.953125 11.863281 -18.394531 10.78125 -17.28125 C 9.707031 -16.175781 9.171875 -14.65625 9.171875 -12.71875 C 9.171875 -10.78125 9.707031 -9.242188 10.78125 -8.109375 C 11.863281 -6.972656 13.175781 -6.40625 14.71875 -6.40625 C 16.269531 -6.40625 17.582031 -6.960938 18.65625 -8.078125 C 19.726562 -9.203125 20.265625 -10.734375 20.265625 -12.671875 Z M 20.265625 -12.671875 "/></g></g></g><g fill="#a6a6a6" fill-opacity="1"><g transform="translate(0.0819912, 83.596892)"><g><path d="M 16.953125 -6.59375 L 16.953125 0 L 13 0 C 10.175781 0 7.976562 -0.6875 6.40625 -2.0625 C 4.832031 -3.445312 4.046875 -5.695312 4.046875 -8.8125 L 4.046875 -18.90625 L 0.953125 -18.90625 L 0.953125 -25.359375 L 4.046875 -25.359375 L 4.046875 -31.53125 L 11.8125 -31.53125 L 11.8125 -25.359375 L 16.90625 -25.359375 L 16.90625 -18.90625 L 11.8125 -18.90625 L 11.8125 -8.71875 C 11.8125 -7.96875 11.992188 -7.425781 12.359375 -7.09375 C 12.722656 -6.757812 13.328125 -6.59375 14.171875 -6.59375 Z M 16.953125 -6.59375 "/></g></g></g><g fill="#a6a6a6" fill-opacity="1"><g transform="translate(16.254549, 83.596892)"><g><path d="M 10.59375 -21.125 C 11.5 -22.519531 12.632812 -23.617188 14 -24.421875 C 15.363281 -25.222656 16.875 -25.625 18.53125 -25.625 L 18.53125 -17.40625 L 16.40625 -17.40625 C 14.46875 -17.40625 13.015625 -16.988281 12.046875 -16.15625 C 11.078125 -15.320312 10.59375 -13.859375 10.59375 -11.765625 L 10.59375 0 L 2.8125 0 L 2.8125 -25.359375 L 10.59375 -25.359375 Z M 10.59375 -21.125 "/></g></g></g><g fill="#a6a6a6" fill-opacity="1"><g transform="translate(33.426585, 83.596892)"><g><path d="M 1.265625 -12.71875 C 1.265625 -15.320312 1.753906 -17.609375 2.734375 -19.578125 C 3.722656 -21.546875 5.066406 -23.0625 6.765625 -24.125 C 8.460938 -25.1875 10.359375 -25.71875 12.453125 -25.71875 C 14.234375 -25.71875 15.796875 -25.351562 17.140625 -24.625 C 18.492188 -23.894531 19.535156 -22.941406 20.265625 -21.765625 L 20.265625 -25.359375 L 28.03125 -25.359375 L 28.03125 0 L 20.265625 0 L 20.265625 -3.59375 C 19.503906 -2.40625 18.445312 -1.445312 17.09375 -0.71875 C 15.75 0 14.1875 0.359375 12.40625 0.359375 C 10.34375 0.359375 8.460938 -0.175781 6.765625 -1.25 C 5.066406 -2.320312 3.722656 -3.847656 2.734375 -5.828125 C 1.753906 -7.816406 1.265625 -10.113281 1.265625 -12.71875 Z M 20.265625 -12.671875 C 20.265625 -14.609375 19.726562 -16.140625 18.65625 -17.265625 C 17.582031 -18.390625 16.269531 -18.953125 14.71875 -18.953125 C 13.175781 -18.953125 11.863281 -18.394531 10.78125 -17.28125 C 9.707031 -16.175781 9.171875 -14.65625 9.171875 -12.71875 C 9.171875 -10.78125 9.707031 -9.242188 10.78125 -8.109375 C 11.863281 -6.972656 13.175781 -6.40625 14.71875 -6.40625 C 16.269531 -6.40625 17.582031 -6.960938 18.65625 -8.078125 C 19.726562 -9.203125 20.265625 -10.734375 20.265625 -12.671875 Z M 20.265625 -12.671875 "/></g></g></g><g fill="#a6a6a6" fill-opacity="1"><g transform="translate(62.002022, 83.596892)"><g><path d="M 1.265625 -12.71875 C 1.265625 -15.320312 1.753906 -17.609375 2.734375 -19.578125 C 3.722656 -21.546875 5.066406 -23.0625 6.765625 -24.125 C 8.460938 -25.1875 10.359375 -25.71875 12.453125 -25.71875 C 14.117188 -25.71875 15.640625 -25.367188 17.015625 -24.671875 C 18.390625 -23.972656 19.472656 -23.035156 20.265625 -21.859375 L 20.265625 -33.625 L 28.03125 -33.625 L 28.03125 0 L 20.265625 0 L 20.265625 -3.640625 C 19.535156 -2.421875 18.492188 -1.445312 17.140625 -0.71875 C 15.796875 0 14.234375 0.359375 12.453125 0.359375 C 10.359375 0.359375 8.460938 -0.175781 6.765625 -1.25 C 5.066406 -2.320312 3.722656 -3.847656 2.734375 -5.828125 C 1.753906 -7.816406 1.265625 -10.113281 1.265625 -12.71875 Z M 20.265625 -12.671875 C 20.265625 -14.609375 19.726562 -16.140625 18.65625 -17.265625 C 17.582031 -18.390625 16.269531 -18.953125 14.71875 -18.953125 C 13.175781 -18.953125 11.863281 -18.394531 10.78125 -17.28125 C 9.707031 -16.175781 9.171875 -14.65625 9.171875 -12.71875 C 9.171875 -10.78125 9.707031 -9.242188 10.78125 -8.109375 C 11.863281 -6.972656 13.175781 -6.40625 14.71875 -6.40625 C 16.269531 -6.40625 17.582031 -6.960938 18.65625 -8.078125 C 19.726562 -9.203125 20.265625 -10.734375 20.265625 -12.671875 Z M 20.265625 -12.671875 "/></g></g></g><g fill="#a6a6a6" fill-opacity="1"><g transform="translate(90.57746, 83.596892)"><g><path d="M 26.71875 -13.09375 C 26.71875 -12.363281 26.671875 -11.601562 26.578125 -10.8125 L 9 -10.8125 C 9.113281 -9.238281 9.617188 -8.035156 10.515625 -7.203125 C 11.410156 -6.367188 12.507812 -5.953125 13.8125 -5.953125 C 15.75 -5.953125 17.097656 -6.769531 17.859375 -8.40625 L 26.125 -8.40625 C 25.695312 -6.738281 24.929688 -5.238281 23.828125 -3.90625 C 22.722656 -2.570312 21.335938 -1.523438 19.671875 -0.765625 C 18.003906 -0.015625 16.140625 0.359375 14.078125 0.359375 C 11.597656 0.359375 9.390625 -0.164062 7.453125 -1.21875 C 5.515625 -2.28125 4 -3.796875 2.90625 -5.765625 C 1.8125 -7.734375 1.265625 -10.035156 1.265625 -12.671875 C 1.265625 -15.304688 1.800781 -17.609375 2.875 -19.578125 C 3.957031 -21.546875 5.46875 -23.0625 7.40625 -24.125 C 9.34375 -25.1875 11.566406 -25.71875 14.078125 -25.71875 C 16.535156 -25.71875 18.71875 -25.203125 20.625 -24.171875 C 22.53125 -23.140625 24.019531 -21.671875 25.09375 -19.765625 C 26.175781 -17.859375 26.71875 -15.632812 26.71875 -13.09375 Z M 18.765625 -15.125 C 18.765625 -16.457031 18.3125 -17.519531 17.40625 -18.3125 C 16.5 -19.101562 15.363281 -19.5 14 -19.5 C 12.695312 -19.5 11.597656 -19.117188 10.703125 -18.359375 C 9.804688 -17.597656 9.253906 -16.519531 9.046875 -15.125 Z M 18.765625 -15.125 "/></g></g></g><g fill="#a6a6a6" fill-opacity="1"><g transform="translate(116.290697, 83.596892)"><g><path d="M 1.265625 -12.671875 C 1.265625 -15.304688 1.800781 -17.609375 2.875 -19.578125 C 3.957031 -21.546875 5.457031 -23.0625 7.375 -24.125 C 9.300781 -25.1875 11.507812 -25.71875 14 -25.71875 C 17.175781 -25.71875 19.832031 -24.882812 21.96875 -23.21875 C 24.101562 -21.550781 25.503906 -19.203125 26.171875 -16.171875 L 17.90625 -16.171875 C 17.207031 -18.109375 15.859375 -19.078125 13.859375 -19.078125 C 12.429688 -19.078125 11.289062 -18.523438 10.4375 -17.421875 C 9.59375 -16.316406 9.171875 -14.734375 9.171875 -12.671875 C 9.171875 -10.617188 9.59375 -9.035156 10.4375 -7.921875 C 11.289062 -6.816406 12.429688 -6.265625 13.859375 -6.265625 C 15.859375 -6.265625 17.207031 -7.234375 17.90625 -9.171875 L 26.171875 -9.171875 C 25.503906 -6.203125 24.09375 -3.867188 21.9375 -2.171875 C 19.789062 -0.484375 17.144531 0.359375 14 0.359375 C 11.507812 0.359375 9.300781 -0.164062 7.375 -1.21875 C 5.457031 -2.28125 3.957031 -3.796875 2.875 -5.765625 C 1.800781 -7.734375 1.265625 -10.035156 1.265625 -12.671875 Z M 1.265625 -12.671875 "/></g></g></g><g fill="#a6a6a6" fill-opacity="1"><g transform="translate(141.504162, 83.596892)"><g><path d="M 26.71875 -13.09375 C 26.71875 -12.363281 26.671875 -11.601562 26.578125 -10.8125 L 9 -10.8125 C 9.113281 -9.238281 9.617188 -8.035156 10.515625 -7.203125 C 11.410156 -6.367188 12.507812 -5.953125 13.8125 -5.953125 C 15.75 -5.953125 17.097656 -6.769531 17.859375 -8.40625 L 26.125 -8.40625 C 25.695312 -6.738281 24.929688 -5.238281 23.828125 -3.90625 C 22.722656 -2.570312 21.335938 -1.523438 19.671875 -0.765625 C 18.003906 -0.015625 16.140625 0.359375 14.078125 0.359375 C 11.597656 0.359375 9.390625 -0.164062 7.453125 -1.21875 C 5.515625 -2.28125 4 -3.796875 2.90625 -5.765625 C 1.8125 -7.734375 1.265625 -10.035156 1.265625 -12.671875 C 1.265625 -15.304688 1.800781 -17.609375 2.875 -19.578125 C 3.957031 -21.546875 5.46875 -23.0625 7.40625 -24.125 C 9.34375 -25.1875 11.566406 -25.71875 14.078125 -25.71875 C 16.535156 -25.71875 18.71875 -25.203125 20.625 -24.171875 C 22.53125 -23.140625 24.019531 -21.671875 25.09375 -19.765625 C 26.175781 -17.859375 26.71875 -15.632812 26.71875 -13.09375 Z M 18.765625 -15.125 C 18.765625 -16.457031 18.3125 -17.519531 17.40625 -18.3125 C 16.5 -19.101562 15.363281 -19.5 14 -19.5 C 12.695312 -19.5 11.597656 -19.117188 10.703125 -18.359375 C 9.804688 -17.597656 9.253906 -16.519531 9.046875 -15.125 Z M 18.765625 -15.125 "/></g></g></g><g fill="#a6a6a6" fill-opacity="1"><g transform="translate(167.217399, 83.596892)"><g><path d="M 18.265625 -25.625 C 21.234375 -25.625 23.601562 -24.660156 25.375 -22.734375 C 27.144531 -20.816406 28.03125 -18.175781 28.03125 -14.8125 L 28.03125 0 L 20.3125 0 L 20.3125 -13.765625 C 20.3125 -15.460938 19.867188 -16.78125 18.984375 -17.71875 C 18.109375 -18.65625 16.929688 -19.125 15.453125 -19.125 C 13.960938 -19.125 12.78125 -18.65625 11.90625 -17.71875 C 11.03125 -16.78125 10.59375 -15.460938 10.59375 -13.765625 L 10.59375 0 L 2.8125 0 L 2.8125 -25.359375 L 10.59375 -25.359375 L 10.59375 -21.984375 C 11.375 -23.109375 12.429688 -23.992188 13.765625 -24.640625 C 15.097656 -25.296875 16.597656 -25.625 18.265625 -25.625 Z M 18.265625 -25.625 "/></g></g></g><g fill="#a6a6a6" fill-opacity="1"><g transform="translate(195.565667, 83.596892)"><g><path d="M 16.953125 -6.59375 L 16.953125 0 L 13 0 C 10.175781 0 7.976562 -0.6875 6.40625 -2.0625 C 4.832031 -3.445312 4.046875 -5.695312 4.046875 -8.8125 L 4.046875 -18.90625 L 0.953125 -18.90625 L 0.953125 -25.359375 L 4.046875 -25.359375 L 4.046875 -31.53125 L 11.8125 -31.53125 L 11.8125 -25.359375 L 16.90625 -25.359375 L 16.90625 -18.90625 L 11.8125 -18.90625 L 11.8125 -8.71875 C 11.8125 -7.96875 11.992188 -7.425781 12.359375 -7.09375 C 12.722656 -6.757812 13.328125 -6.59375 14.171875 -6.59375 Z M 16.953125 -6.59375 "/></g></g></g><g fill="#a6a6a6" fill-opacity="1"><g transform="translate(211.738224, 83.596892)"><g><path d="M 26.71875 -13.09375 C 26.71875 -12.363281 26.671875 -11.601562 26.578125 -10.8125 L 9 -10.8125 C 9.113281 -9.238281 9.617188 -8.035156 10.515625 -7.203125 C 11.410156 -6.367188 12.507812 -5.953125 13.8125 -5.953125 C 15.75 -5.953125 17.097656 -6.769531 17.859375 -8.40625 L 26.125 -8.40625 C 25.695312 -6.738281 24.929688 -5.238281 23.828125 -3.90625 C 22.722656 -2.570312 21.335938 -1.523438 19.671875 -0.765625 C 18.003906 -0.015625 16.140625 0.359375 14.078125 0.359375 C 11.597656 0.359375 9.390625 -0.164062 7.453125 -1.21875 C 5.515625 -2.28125 4 -3.796875 2.90625 -5.765625 C 1.8125 -7.734375 1.265625 -10.035156 1.265625 -12.671875 C 1.265625 -15.304688 1.800781 -17.609375 2.875 -19.578125 C 3.957031 -21.546875 5.46875 -23.0625 7.40625 -24.125 C 9.34375 -25.1875 11.566406 -25.71875 14.078125 -25.71875 C 16.535156 -25.71875 18.71875 -25.203125 20.625 -24.171875 C 22.53125 -23.140625 24.019531 -21.671875 25.09375 -19.765625 C 26.175781 -17.859375 26.71875 -15.632812 26.71875 -13.09375 Z M 18.765625 -15.125 C 18.765625 -16.457031 18.3125 -17.519531 17.40625 -18.3125 C 16.5 -19.101562 15.363281 -19.5 14 -19.5 C 12.695312 -19.5 11.597656 -19.117188 10.703125 -18.359375 C 9.804688 -17.597656 9.253906 -16.519531 9.046875 -15.125 Z M 18.765625 -15.125 "/></g></g></g><g fill="#a6a6a6" fill-opacity="1"><g transform="translate(237.451461, 83.596892)"><g><path d="M 10.59375 -21.125 C 11.5 -22.519531 12.632812 -23.617188 14 -24.421875 C 15.363281 -25.222656 16.875 -25.625 18.53125 -25.625 L 18.53125 -17.40625 L 16.40625 -17.40625 C 14.46875 -17.40625 13.015625 -16.988281 12.046875 -16.15625 C 11.078125 -15.320312 10.59375 -13.859375 10.59375 -11.765625 L 10.59375 0 L 2.8125 0 L 2.8125 -25.359375 L 10.59375 -25.359375 Z M 10.59375 -21.125 "/></g></g></g><g fill="#a6a6a6" fill-opacity="1"><g transform="translate(254.623498, 83.596892)"><g><path d="M 6.453125 0.359375 C 5.085938 0.359375 3.972656 -0.0390625 3.109375 -0.84375 C 2.242188 -1.644531 1.8125 -2.632812 1.8125 -3.8125 C 1.8125 -5.03125 2.242188 -6.046875 3.109375 -6.859375 C 3.972656 -7.679688 5.085938 -8.09375 6.453125 -8.09375 C 7.785156 -8.09375 8.882812 -7.679688 9.75 -6.859375 C 10.613281 -6.046875 11.046875 -5.03125 11.046875 -3.8125 C 11.046875 -2.632812 10.613281 -1.644531 9.75 -0.84375 C 8.882812 -0.0390625 7.785156 0.359375 6.453125 0.359375 Z M 6.453125 0.359375 "/></g></g></g></g></g><g transform="matrix(1, 0, 0, 1, 5, 5)"><g clip-path="url(#12bf4fc8b5)"><g clip-path="url(#ca1d073b26)"><g transform="matrix(1, 0, 0, 1, 26, 54)"><g clip-path="url(#1f5cf1291c)"><g clip-path="url(#3a3bb946c0)"><path fill="#0bd964" d="M 26.242188 0.4375 L 26.242188 26.8125 L 0.46875 26.8125 L 0.46875 0.4375 Z M 26.242188 0.4375 " fill-opacity="1" fill-rule="nonzero"/></g></g></g></g><g clip-path="url(#2d6f50fe2a)"><g transform="matrix(1, 0, 0, 1, 51, 27)"><g clip-path="url(#99d1b55861)"><g clip-path="url(#c21ac737a0)"><path fill="#0bd964" d="M 27.613281 0.210938 L 27.613281 27.402344 L 0.945312 27.402344 L 0.945312 0.210938 Z M 27.613281 0.210938 " fill-opacity="1" fill-rule="nonzero"/></g></g></g></g><g clip-path="url(#242871cbff)"><g transform="matrix(1, 0, 0, 1, 0.000000000000000888, -0.000000000000008882)"><g clip-path="url(#df1337641d)"><g clip-path="url(#9ffe4d7169)"><path fill="#0bd964" d="M 26.765625 0.4375 L 26.765625 54.402344 L 0.0976562 54.402344 L 0.0976562 0.4375 Z M 26.765625 0.4375 " fill-opacity="1" fill-rule="nonzero"/></g></g></g></g><g clip-path="url(#602410431a)"><g transform="matrix(1, 0, 0, 1, 78, -0.000000000000008882)"><g clip-path="url(#567a1cfa70)"><g clip-path="url(#f2b45e3e0b)"><path fill="#0bd964" d="M 0.617188 0.4375 L 81.519531 0.4375 L 81.519531 27.511719 L 0.617188 27.511719 Z M 0.617188 0.4375 " fill-opacity="1" fill-rule="nonzero"/></g></g></g></g><g clip-path="url(#fbdced6677)"><g transform="matrix(1, 0, 0, 1, 105, 27)"><g clip-path="url(#0966651179)"><g clip-path="url(#fa544302cb)"><path fill="#0bd964" d="M 27.589844 0.214844 L 27.589844 54.066406 L 0.609375 54.066406 L 0.609375 0.214844 Z M 27.589844 0.214844 " fill-opacity="1" fill-rule="nonzero"/></g></g></g></g><g clip-path="url(#a66b2f4b63)"><g transform="matrix(1, 0, 0, 1, 159, 54)"><g clip-path="url(#10ce5d7f82)"><g clip-path="url(#21c510a2af)"><path fill="#0bd964" d="M 0.664062 0.433594 L 81.585938 0.433594 L 81.585938 27.0625 L 0.664062 27.0625 Z M 0.664062 0.433594 " fill-opacity="1" fill-rule="nonzero"/></g></g></g></g><g clip-path="url(#503027fdee)"><g transform="matrix(1, 0, 0, 1, 159, 27)"><g clip-path="url(#d6f70fa796)"><g clip-path="url(#b3b86f0f2d)"><path fill="#0bd964" d="M 27.820312 0.214844 L 27.820312 30.027344 L 0.660156 30.027344 L 0.660156 0.214844 Z M 27.820312 0.214844 " fill-opacity="1" fill-rule="nonzero"/></g></g></g></g><g clip-path="url(#2a9b734a79)"><g transform="matrix(1, 0, 0, 1, 186, -0.000000000000008882)"><g clip-path="url(#563eccb057)"><g clip-path="url(#a31bc80d92)"><path fill="#0bd964" d="M 0.421875 0.4375 L 54.78125 0.4375 L 54.78125 27.511719 L 0.421875 27.511719 Z M 0.421875 0.4375 " fill-opacity="1" fill-rule="nonzero"/></g></g></g></g></g></g></svg>